<svg width="178" height="30" viewBox="0 0 178 30" fill="none" xmlns="http://www.w3.org/2000/svg">
<g clip-path="url(#clip0_17_73)">
<path d="M178 21.555C177.949 21.8126 177.897 22.0443 177.846 22.3017C177.279 24.9539 175.657 26.7563 173.263 27.9408C171.614 28.7645 169.864 29.151 168.061 29.2796C164.688 29.5373 161.418 29.1253 158.225 27.9408C157.144 27.529 156.088 27.0137 155.161 26.3442C155.032 26.2669 154.903 26.1899 154.981 25.9838C155.676 24.4648 156.371 22.9198 157.067 21.3491C157.169 21.4006 157.247 21.4521 157.324 21.5034C160.388 23.5377 163.761 24.413 167.417 24.1556C168.164 24.1043 168.911 23.8982 169.632 23.6923C170.198 23.538 170.662 23.1772 171.048 22.7397C171.898 21.7098 171.743 20.3194 170.713 19.4954C170.044 18.9803 169.271 18.6456 168.473 18.414C166.516 17.8989 164.533 17.4096 162.602 16.869C161.624 16.5858 160.645 16.2769 159.744 15.8646C157.993 15.0408 156.551 13.8563 155.908 11.9766C154.826 8.78362 155.702 4.94719 158.972 2.75855C160.646 1.65135 162.525 1.05923 164.508 0.827584C165.049 0.750283 165.615 0.724517 166.182 0.69875C166.233 0.69875 166.284 0.647217 166.362 0.647217C166.877 0.647217 167.392 0.647217 167.907 0.647217C167.984 0.673239 168.061 0.69875 168.139 0.69875C169.967 0.77605 171.769 1.085 173.52 1.65135C174.679 2.01183 175.76 2.50114 176.816 3.1448C176.146 4.76708 175.503 6.38936 174.833 8.01138C174.524 7.85704 174.241 7.70244 173.983 7.54809C171.177 6.13169 168.242 5.5138 165.1 5.97735C164.148 6.13169 163.272 6.46666 162.577 7.16185C161.676 8.08894 161.367 10.1487 163.221 11.0243C163.813 11.3075 164.405 11.5394 165.023 11.7195C166.825 12.2088 168.653 12.6466 170.456 13.1359C171.821 13.5221 173.211 13.8826 174.447 14.6293C176.044 15.608 177.331 16.8437 177.769 18.7492C177.872 19.161 177.923 19.5987 178 20.0107C178 20.5251 178 21.0399 178 21.555Z" fill="#EE7F1B"/>
<path d="M0.0773 28.8415C0.0515333 28.8415 0.0257667 28.8415 0 28.8415C0 19.5979 0 10.3541 0 1.11047C0.0257667 1.11047 0.0515333 1.11047 0.0773 1.11047C0.0773 10.3798 0.0773 19.5979 0.0773 28.8415Z" fill="#A24989"/>
<path d="M86.9788 24.6962C89.0131 24.6962 91.0729 24.6962 93.107 24.6962C93.2098 24.6962 93.3386 24.6446 93.4159 24.5673C96.5829 21.4003 99.7499 18.2333 102.917 15.0661C102.943 15.0403 102.943 15.0145 102.968 14.9633C102.891 14.886 102.814 14.8089 102.737 14.7316C99.6726 11.6417 96.5829 8.57773 93.5187 5.48777C93.3644 5.33342 93.2098 5.25612 92.9781 5.25612C90.9696 5.25612 88.9869 5.25612 86.9531 5.25612C89.2963 7.59936 91.6393 9.94234 93.9565 12.2598C93.9308 12.2856 93.905 12.3113 93.905 12.3371C89.6053 12.3371 85.305 12.3371 80.9793 12.3371C80.9793 8.60349 80.9793 4.86988 80.9793 1.11075C81.0308 1.11075 81.1081 1.08473 81.1597 1.08473C85.5882 1.08473 90.0428 1.03345 94.4716 1.11075C97.8705 1.16203 101.038 2.11488 103.767 4.20045C106.548 6.31179 108.17 9.14408 108.659 12.6203C109.046 15.2467 108.865 17.8216 107.887 20.2934C106.419 23.9755 103.715 26.37 100.034 27.7606C98.1282 28.4816 96.1457 28.8163 94.1114 28.8418C89.7856 28.8678 85.4599 28.8418 81.1342 28.8418C81.0829 28.8418 81.0313 28.8418 80.954 28.8418C80.954 25.1084 80.954 21.3748 80.954 17.6154C85.2538 17.6154 89.554 17.6154 93.9055 17.6154C91.5623 19.9587 89.2195 22.3017 86.9021 24.6191C86.9531 24.6446 86.9531 24.6707 86.9788 24.6962Z" fill="#902371"/>
<path d="M154.183 28.8675C154.028 28.8675 153.925 28.8675 153.822 28.8675C151.814 28.8675 149.805 28.8675 147.797 28.8675C147.539 28.8675 147.437 28.7902 147.334 28.5586C146.587 26.7304 145.84 24.9281 145.094 23.1254C144.991 22.8938 144.888 22.8425 144.656 22.8425C140.588 22.8425 136.519 22.8425 132.477 22.8425C132.245 22.8425 132.142 22.9198 132.039 23.1514C131.292 24.9536 130.546 26.7817 129.799 28.5844C129.722 28.7387 129.696 28.8933 129.439 28.8933C127.379 28.8933 125.319 28.8933 123.233 28.8933C123.207 28.8933 123.156 28.8933 123.104 28.8675C123.13 28.7645 123.182 28.6872 123.207 28.5844C127.25 19.5466 131.267 10.4832 135.283 1.44518C135.387 1.21353 135.515 1.13623 135.773 1.13623C137.678 1.162 139.558 1.13623 141.463 1.13623C141.695 1.13623 141.798 1.21353 141.901 1.41941C145.918 10.4314 149.96 19.4691 154.003 28.4813C154.054 28.5844 154.105 28.7129 154.183 28.8675ZM138.579 7.41896C137.137 10.8691 135.746 14.2168 134.356 17.5897C137.188 17.5897 139.969 17.5897 142.801 17.5897C141.386 14.1908 139.995 10.8436 138.579 7.41896Z" fill="#EE7F1A"/>
<path d="M70.654 12.3626C68.6458 12.3626 66.663 12.3626 64.6805 12.3626C64.4744 12.3626 64.4228 12.234 64.3716 12.1052C63.7792 10.6888 63.1868 9.27267 62.6207 7.85678C62.5692 7.72794 62.5176 7.62513 62.4403 7.44477C61.0242 10.8437 59.6338 14.2168 58.2177 17.6155C58.372 17.6155 58.5006 17.6155 58.6294 17.6155C63.3156 17.6155 68.0018 17.6155 72.6881 17.6155C72.9457 17.6155 73.0743 17.6928 73.1774 17.9244C74.7479 21.4521 76.3186 24.9796 77.9149 28.5071C77.9664 28.6099 77.9922 28.7132 78.0695 28.8418C77.9406 28.8418 77.8633 28.8678 77.7603 28.8678C75.7262 28.8678 73.6662 28.8678 71.6321 28.8678C71.4002 28.8678 71.2972 28.7905 71.2201 28.5847C70.4734 26.7565 69.7267 24.9541 68.98 23.126C68.9027 22.8943 68.7741 22.843 68.5422 22.843C64.4741 22.843 60.4315 22.843 56.3632 22.843C56.1316 22.843 56.0285 22.9203 55.9254 23.126C55.1787 24.9283 54.432 26.7565 53.6855 28.5591C53.5825 28.7908 53.4794 28.8681 53.222 28.8681C51.2652 28.8681 49.2827 28.8681 47.3258 28.8681C47.2227 28.8681 47.1196 28.8681 46.9908 28.8681C47.0423 28.765 47.0681 28.662 47.0939 28.5849C51.1364 19.5214 55.1532 10.4837 59.1958 1.42021C59.2986 1.18857 59.4019 1.11127 59.6591 1.11127C61.5645 1.11127 63.47 1.11127 65.3752 1.11127C65.5555 1.11127 65.6841 1.11127 65.7614 1.31715C67.3837 4.94769 69.006 8.5785 70.628 12.2088C70.6285 12.234 70.6285 12.2853 70.654 12.3626Z" fill="#902371"/>
<path d="M0.0772705 28.8416C0.0772705 19.598 0.0772705 10.3541 0.0772705 1.13605C2.18861 1.13605 4.3002 1.13605 6.4373 1.13605C6.4373 8.62879 6.4373 16.096 6.4373 23.6145C11.0978 23.6145 15.7067 23.6145 20.3416 23.6145C20.3416 25.3654 20.3416 27.0907 20.3416 28.8413C20.2385 28.8413 20.1612 28.8674 20.0584 28.8674C13.4925 28.8674 6.92636 28.8674 0.334682 28.8674C0.257382 28.8676 0.154571 28.8416 0.0772705 28.8416Z" fill="#8F2371"/>
<path d="M113.732 1.13623C115.869 1.13623 117.98 1.13623 120.117 1.13623C120.117 10.3798 120.117 19.5979 120.117 28.8418C118.006 28.8418 115.869 28.8418 113.732 28.8418C113.732 19.5979 113.732 10.3798 113.732 1.13623Z" fill="#EE7F1A"/>
<path d="M23.9719 6.31176C23.9719 4.58641 23.9719 2.86158 23.9719 1.13623C30.9498 1.13623 37.9277 1.13623 44.9057 1.13623C44.9057 2.86158 44.9057 4.58641 44.9057 6.31176C37.9535 6.31176 30.9756 6.31176 23.9719 6.31176Z" fill="#902371"/>
<path d="M44.9057 17.5897C37.9277 17.5897 30.9756 17.5897 23.9719 17.5897C23.9719 15.8643 23.9719 14.1395 23.9719 12.3884C30.9498 12.3884 37.902 12.3884 44.9057 12.3884C44.9057 14.1135 44.9057 15.8388 44.9057 17.5897Z" fill="#8F2371"/>
<path d="M23.9719 28.8415C23.9719 27.1164 23.9719 25.3914 23.9719 23.6663C30.9498 23.6663 37.902 23.6663 44.9057 23.6663C44.9057 25.3914 44.9057 27.1164 44.9057 28.8415C37.9535 28.8415 30.9756 28.8415 23.9719 28.8415Z" fill="#902371"/>
</g>
<defs>
<clipPath id="clip0_17_73">
<rect width="178" height="28.7061" fill="white" transform="translate(0 0.646973)"/>
</clipPath>
</defs>
</svg>
